<svg xmlns="http://www.w3.org/2000/svg">
    <symbol id="menu" viewBox="0 0 32 32">
        <path d="M5 8h22M5 16h22M27 24H5" stroke-width="3" stroke="#fff" stroke-linecap="round"/>
    </symbol>
    <symbol id="cross" viewBox="0 0 32 32">
        <path d="M7 24L25 8M25 24L7 8" stroke-width="3" stroke="#fff" stroke-linecap="round"/>
    </symbol>
    <symbol id="chevron-left" viewBox="0 0 36 36">
        <path d="M33 3L18 18 M18 18L33 33" stroke-width="6" stroke="#00243f" stroke-linecap="round"/>
    </symbol>
    <symbol id="chevron-right" viewBox="0 0 36 36">
        <path d="M3 3L18 18 M18 18L3 33" stroke-width="6" stroke="#00243f" stroke-linecap="round"/>
    </symbol>
    <symbol id="instagram" viewBox="0 0 24 24">
        <path d="M12 0C8.74 0 8.333.015 7.053.072 5.775.132 4.905.333 4.14.63c-.789.306-1.459.717-2.126 1.384S.935 3.35.63 4.14C.333 4.905.131 5.775.072 7.053.012 8.333 0 8.74 0 12s.015 3.667.072 4.947c.06 1.277.261 2.148.558 2.913.306.788.717 1.459 1.384 2.126.667.666 1.336 1.079 2.126 1.384.766.296 1.636.499 2.913.558C8.333 23.988 8.74 24 12 24s3.667-.015 4.947-.072c1.277-.06 2.148-.262 2.913-.558.788-.306 1.459-.718 2.126-1.384.666-.667 1.079-1.335 1.384-2.126.296-.765.499-1.636.558-2.913.06-1.28.072-1.687.072-4.947s-.015-3.667-.072-4.947c-.06-1.277-.262-2.149-.558-2.913-.306-.789-.718-1.459-1.384-2.126C21.319 1.347 20.651.935 19.86.63c-.765-.297-1.636-.499-2.913-.558C15.667.012 15.26 0 12 0zm0 2.16c3.203 0 3.585.016 4.85.071 1.17.055 1.805.249 2.227.415.562.217.96.477 1.382.896.419.42.679.819.896 1.381.164.422.36 1.057.413 2.227.057 1.266.07 1.646.07 4.85s-.015 3.585-.074 4.85c-.061 1.17-.256 1.805-.421 2.227-.224.562-.479.96-.899 1.382-.419.419-.824.679-1.38.896-.42.164-1.065.36-2.235.413-1.274.057-1.649.07-4.859.07-3.211 0-3.586-.015-4.859-.074-1.171-.061-1.816-.256-2.236-.421-.569-.224-.96-.479-1.379-.899-.421-.419-.69-.824-.9-1.38-.165-.42-.359-1.065-.42-2.235-.045-1.26-.061-1.649-.061-4.844 0-3.196.016-3.586.061-4.861.061-1.17.255-1.814.42-2.234.21-.57.479-.96.9-1.381.419-.419.81-.689 1.379-.898.42-.166 1.051-.361 2.221-.421 1.275-.045 1.65-.06 4.859-.06l.045.03zm0 3.678c-3.405 0-6.162 2.76-6.162 6.162 0 3.405 2.76 6.162 6.162 6.162 3.405 0 6.162-2.76 6.162-6.162 0-3.405-2.76-6.162-6.162-6.162zM12 16c-2.21 0-4-1.79-4-4s1.79-4 4-4 4 1.79 4 4-1.79 4-4 4zm7.846-10.405c0 .795-.646 1.44-1.44 1.44-.795 0-1.44-.646-1.44-1.44 0-.794.646-1.439 1.44-1.439.793-.001 1.44.645 1.44 1.439z"/>
    </symbol>
    <symbol id="facebook" viewBox="-21 -21 682.66669 682.66669">
        <path d="m604.671875 0h-569.375c-19.496094.0117188-35.30078125 15.824219-35.296875 35.328125v569.375c.0117188 19.496094 15.824219 35.300781 35.328125 35.296875h306.546875v-247.5h-83.125v-96.875h83.125v-71.292969c0-82.675781 50.472656-127.675781 124.222656-127.675781 35.324219 0 65.679688 2.632812 74.527344 3.808594v86.410156h-50.855469c-40.125 0-47.894531 19.066406-47.894531 47.050781v61.699219h95.9375l-12.5 96.875h-83.4375v247.5h162.796875c19.507813.003906 35.324219-15.804688 35.328125-35.3125 0-.003906 0-.007812 0-.015625v-569.375c-.007812-19.496094-15.824219-35.30078125-35.328125-35.296875zm0 0"/>
    </symbol>
    <symbol id="twitter" viewBox="0 0 512 512">
        <path d="m475.074219 0h-438.148438c-20.394531 0-36.925781 16.53125-36.925781 36.925781v438.148438c0 20.394531 16.53125 36.925781 36.925781 36.925781h438.148438c20.394531 0 36.925781-16.53125 36.925781-36.925781v-438.148438c0-20.394531-16.53125-36.925781-36.925781-36.925781zm-102.1875 199.601562c.113281 2.519532.167969 5.050782.167969 7.59375 0 77.644532-59.101563 167.179688-167.183594 167.183594h.003906-.003906c-33.183594 0-64.0625-9.726562-90.066406-26.394531 4.597656.542969 9.277343.8125 14.015624.8125 27.53125 0 52.867188-9.390625 72.980469-25.152344-25.722656-.476562-47.410156-17.464843-54.894531-40.8125 3.582031.6875 7.265625 1.0625 11.042969 1.0625 5.363281 0 10.558593-.722656 15.496093-2.070312-26.886718-5.382813-47.140624-29.144531-47.140624-57.597657 0-.265624 0-.503906.007812-.75 7.917969 4.402344 16.972656 7.050782 26.613281 7.347657-15.777343-10.527344-26.148437-28.523438-26.148437-48.910157 0-10.765624 2.910156-20.851562 7.957031-29.535156 28.976563 35.554688 72.28125 58.9375 121.117187 61.394532-1.007812-4.304688-1.527343-8.789063-1.527343-13.398438 0-32.4375 26.316406-58.753906 58.765625-58.753906 16.902344 0 32.167968 7.144531 42.890625 18.566406 13.386719-2.640625 25.957031-7.53125 37.3125-14.261719-4.394531 13.714844-13.707031 25.222657-25.839844 32.5 11.886719-1.421875 23.214844-4.574219 33.742187-9.253906-7.863281 11.785156-17.835937 22.136719-29.308593 30.429687zm0 0"/>
    </symbol>
    <symbol id="chat" viewBox="0 0 460 460">
        <path d="M440.047,396.143c-13.192-5.207-24.726-14.157-33.044-25.81C439.582,348.319,460,316.762,460,281.701
				c0-38.367-24.445-72.543-62.527-94.602c-4.023,92.95-102.669,159.14-213.667,159.14c-9.342,0-18.6-0.481-27.755-1.387
				c28.905,34.387,80.701,57.309,139.8,57.309c21.556,0,42.138-3.055,60.996-8.597c16.873,15.79,40.876,23.447,65.237,18.454
				c6.542-1.341,12.702-3.51,18.395-6.376c1.834-0.923,2.955-2.838,2.862-4.889C443.247,398.7,441.957,396.897,440.047,396.143z"/>
        <path d="M367.612,181.353c0-74.495-82.293-134.885-183.806-134.885S0,106.858,0,181.353c0,39.257,22.86,74.592,59.337,99.241
				C49.767,294,36.4,304.212,21.124,309.968c-1.919,0.723-3.236,2.503-3.364,4.55s0.958,3.978,2.773,4.934
				c11.88,6.254,25.231,9.519,38.572,9.519c21.307,0,41.377-8.301,56.401-22.36c21.116,6.206,44.163,9.627,68.301,9.627
				C285.32,316.238,367.612,255.848,367.612,181.353z"/>
    </symbol>
    <symbol id="gallery-view" viewBox="0 -256 1792 1792">
        <path d="M 768,512 V 128 Q 768,76 730,38 692,0 640,0 H 128 Q 76,0 38,38 0,76 0,128 v 384 q 0,52 38,90 38,38 90,38 h 512 q 52,0 90,-38 38,-38 38,-90 z m 0,768 V 896 q 0,-52 -38,-90 -38,-38 -90,-38 H 128 Q 76,768 38,806 0,844 0,896 v 384 q 0,52 38,90 38,38 90,38 h 512 q 52,0 90,-38 38,-38 38,-90 z M 1664,512 V 128 q 0,-52 -38,-90 -38,-38 -90,-38 h -512 q -52,0 -90,38 -38,38 -38,90 v 384 q 0,52 38,90 38,38 90,38 h 512 q 52,0 90,-38 38,-38 38,-90 z m 0,768 V 896 q 0,-52 -38,-90 -38,-38 -90,-38 h -512 q -52,0 -90,38 -38,38 -38,90 v 384 q 0,52 38,90 38,38 90,38 h 512 q 52,0 90,-38 38,-38 38,-90 z"/>
    </symbol>
    <symbol id="list-view" viewBox="0 -256 1800 1800">
        <path d="M 512,288 V 96 Q 512,56 484,28 456,0 416,0 H 96 Q 56,0 28,28 0,56 0,96 v 192 q 0,40 28,68 28,28 68,28 h 320 q 40,0 68,-28 28,-28 28,-68 z m 0,512 V 608 q 0,-40 -28,-68 -28,-28 -68,-28 H 96 Q 56,512 28,540 0,568 0,608 v 192 q 0,40 28,68 28,28 68,28 h 320 q 40,0 68,-28 28,-28 28,-68 z M 1792,288 V 96 Q 1792,56 1764,28 1736,0 1696,0 H 736 q -40,0 -68,28 -28,28 -28,68 v 192 q 0,40 28,68 28,28 68,28 h 960 q 40,0 68,-28 28,-28 28,-68 z M 512,1312 v -192 q 0,-40 -28,-68 -28,-28 -68,-28 H 96 q -40,0 -68,28 -28,28 -28,68 v 192 q 0,40 28,68 28,28 68,28 h 320 q 40,0 68,-28 28,-28 28,-68 z M 1792,800 V 608 q 0,-40 -28,-68 -28,-28 -68,-28 H 736 q -40,0 -68,28 -28,28 -28,68 v 192 q 0,40 28,68 28,28 68,28 h 960 q 40,0 68,-28 28,-28 28,-68 z m 0,512 v -192 q 0,-40 -28,-68 -28,-28 -68,-28 H 736 q -40,0 -68,28 -28,28 -28,68 v 192 q 0,40 28,68 28,28 68,28 h 960 q 40,0 68,-28 28,-28 28,-68 z"/>
    </symbol>
    <symbol id="filter-triangle" viewBox="0 0 10 10">
        <polygon points="0,1 5,8 10,1" />
    </symbol>
</svg>
